<?xml version="1.0" encoding="utf-8"?>
<!-- Generator: Adobe Illustrator 16.0.0, SVG Export Plug-In . SVG Version: 6.00 Build 0)  -->
<!DOCTYPE svg PUBLIC "-//W3C//DTD SVG 1.1//EN" "http://www.w3.org/Graphics/SVG/1.1/DTD/svg11.dtd">
<svg version="1.1" id="Layer_1" xmlns="http://www.w3.org/2000/svg" xmlns:xlink="http://www.w3.org/1999/xlink" x="0px" y="0px"
	 width="200px" height="200px" viewBox="0 0 200 200" enable-background="new 0 0 200 200" xml:space="preserve">
<polygon fill="#D62128" points="157.377,16.632 193.848,127.971 99.228,197.063 4.28,128.425 40.217,16.912 "/>
<polygon fill="#BB2227" points="43.96,171.495 9.968,66.963 98.96,2.358 187.953,66.963 153.961,171.495 "/>
<polygon fill="#A11E22" points="143.294,34.743 170.96,119.201 98.96,171.418 27.16,119.544 54.42,34.956 "/>
<polygon fill="#951B1F" points="62.969,145.496 40.783,77.268 98.832,34.858 156.951,77.268 134.767,145.496 "/>
<polygon fill="#8B191B" points="128.076,55.992 145.923,111.239 99.235,145.526 52.144,111.591 70.354,55.649 "/>
<polygon fill="#7D1518" points="75.729,127.978 61.21,83.259 99.164,55.91 137.04,83.868 122.778,128.464 "/>
<polygon fill="#6C1012" points="118.797,70.222 129.895,106.33 99.872,128.242 69.181,106.478 79.393,70.157 "/>
<polygon fill="#600B10" points="83.989,116.861 74.248,88.208 98.96,70.19 124.235,87.998 114.786,117.357 "/>
<polygon fill="#590E0E" points="111.597,78.939 119.163,102.762 98.96,117.103 79.248,102.915 86.632,79.064 "/>
<polygon fill="#B72D2C" points="89.154,110.099 82.841,91.164 99.039,79.406 115.369,91.066 109.048,110.009 "/>
<polygon fill="#8E191B" points="137.04,83.868 122.778,128.464 145.923,111.239 "/>
<polyline fill="#8E191B" points="143.424,34.637 98.96,2.358 53.912,35.063 "/>
<polyline fill="#8E191B" points="99.072,34.848 157.156,77.155 143.424,34.637 "/>
<polyline fill="#8E191B" points="128.076,55.992 157.156,77.155 145.923,111.239 "/>
<polyline fill="#8E191B" points="99.872,128.242 129.895,106.33 122.778,128.464 "/>
<polyline fill="#8E191B" points="114.786,117.357 83.989,116.861 99.872,128.242 "/>
<polyline fill="#8E191B" points="98.815,117.103 79.248,102.915 83.989,116.861 "/>
<polyline fill="#8E191B" points="89.154,110.099 82.783,91.157 79.248,102.915 "/>
<polygon fill="#8E191B" points="61.21,83.259 99.164,55.91 70.188,55.732 "/>
<polygon fill="#8E191B" points="134.807,171.418 98.96,171.418 63.953,171.562 99.228,197.063 "/>
<polyline fill="#8E191B" points="27.16,119.544 44.074,171.643 98.96,171.418 "/>
<polyline fill="#8E191B" points="63.061,145.496 40.783,77.268 27.16,119.544 "/>
<polyline fill="#8E191B" points="51.979,111.557 40.783,77.268 70.188,55.732 "/>
<polyline fill="#8E191B" points="118.797,70.222 79.393,70.157 99.164,55.91 "/>
<polyline fill="#8E191B" points="98.96,70.19 124.235,87.998 118.797,70.222 "/>
<polyline fill="#8E191B" points="111.66,79.136 119.163,102.915 124.235,87.998 "/>
<polyline fill="#8E191B" points="115.369,91.066 109.048,110.009 119.163,102.915 "/>
</svg>
